<mxfile host="app.diagrams.net" modified="2022-09-21T16:02:40.259Z" agent="5.0 (Windows)" etag="Rqh6meKhmuf_Ci4tzOY0" version="20.3.3" type="github">
  <diagram id="9Iwmk3lrRYjTsBUnzRsm" name="Page-1">
    <mxGraphModel dx="1422" dy="780" grid="1" gridSize="10" guides="1" tooltips="1" connect="1" arrows="1" fold="1" page="1" pageScale="1" pageWidth="850" pageHeight="1100" math="0" shadow="0">
      <root>
        <mxCell id="0" />
        <mxCell id="1" parent="0" />
        <mxCell id="8pH_n15kfVFArLuDpNI--1" value="Employee Record" style="swimlane;fontStyle=0;childLayout=stackLayout;horizontal=1;startSize=26;fillColor=none;horizontalStack=0;resizeParent=1;resizeParentMax=0;resizeLast=0;collapsible=1;marginBottom=0;" vertex="1" parent="1">
          <mxGeometry x="140" y="80" width="150" height="78" as="geometry" />
        </mxCell>
        <mxCell id="8pH_n15kfVFArLuDpNI--2" value="+ employeeID: int" style="text;strokeColor=none;fillColor=none;align=left;verticalAlign=top;spacingLeft=4;spacingRight=4;overflow=hidden;rotatable=0;points=[[0,0.5],[1,0.5]];portConstraint=eastwest;" vertex="1" parent="8pH_n15kfVFArLuDpNI--1">
          <mxGeometry y="26" width="150" height="26" as="geometry" />
        </mxCell>
        <mxCell id="8pH_n15kfVFArLuDpNI--3" value="+ employeeName: string" style="text;strokeColor=none;fillColor=none;align=left;verticalAlign=top;spacingLeft=4;spacingRight=4;overflow=hidden;rotatable=0;points=[[0,0.5],[1,0.5]];portConstraint=eastwest;" vertex="1" parent="8pH_n15kfVFArLuDpNI--1">
          <mxGeometry y="52" width="150" height="26" as="geometry" />
        </mxCell>
        <mxCell id="8pH_n15kfVFArLuDpNI--9" value="Time Data Record" style="swimlane;fontStyle=0;childLayout=stackLayout;horizontal=1;startSize=26;fillColor=none;horizontalStack=0;resizeParent=1;resizeParentMax=0;resizeLast=0;collapsible=1;marginBottom=0;" vertex="1" parent="1">
          <mxGeometry x="360" y="80" width="140" height="110" as="geometry" />
        </mxCell>
        <mxCell id="8pH_n15kfVFArLuDpNI--10" value="+ employeeID: int&#xa;+ Date: date&#xa;+ Start_time: time&#xa;+ Stop_time: time&#xa;+ Elapsed_time: int&#xa;" style="text;strokeColor=none;fillColor=none;align=left;verticalAlign=top;spacingLeft=4;spacingRight=4;overflow=hidden;rotatable=0;points=[[0,0.5],[1,0.5]];portConstraint=eastwest;" vertex="1" parent="8pH_n15kfVFArLuDpNI--9">
          <mxGeometry y="26" width="140" height="84" as="geometry" />
        </mxCell>
      </root>
    </mxGraphModel>
  </diagram>
</mxfile>
